<?xml version="1.0" encoding="UTF-8"?>
<svg width="1001px" height="959px" viewBox="0 0 1001 959" version="1.1" xmlns="http://www.w3.org/2000/svg" xmlns:xlink="http://www.w3.org/1999/xlink">
  <defs>
    <linearGradient x1="0%" y1="2.16737213%" x2="70.0074469%" y2="95.3490744%" id="linearGradient-1">
      <stop stop-color="#FFFFFF" offset="0%"></stop>
      <stop stop-color="#DCDCDC" offset="100%"></stop>
    </linearGradient>
    <linearGradient x1="24.6913916%" y1="34.1385023%" x2="88.3428168%" y2="50%" id="linearGradient-2">
      <stop stop-color="#FFFFFF" offset="0%"></stop>
      <stop stop-color="#DCDCDC" offset="100%"></stop>
    </linearGradient>
  </defs>
  <g id="Page-1" stroke="none" stroke-width="1" fill="none" fill-rule="evenodd">
    <g id="oasp-illustration">
      <g id="lines" transform="translate(194.000000, 69.000000)" stroke-width="2" stroke="#DCDCDC">
        <polygon id="Path-2" points="331.792969 772.59375 230.941406 647.511719 210.09375 756.132812 69.3984375 803.667969 0.6875 697.285156 74.7148438 571.0625 221.871094 532.703125 252.273438 412.667969 335.277344 372.410156 324.988281 229.3125 355.257813 96.1171875 475.363281 136.941406 533.5625 1.97265625 565.28125 174.570312 631.277344 123.195312 734.152344 192.851562 645.613281 283.820313 744.128906 391.785156 723.414062 515.851562 703.902344 640.171875 734.632812 813.101562 632.945312 736.042969 545.882812 819.21875 485.070312 725.351562"></polygon>
        <polyline id="Path-3" points="533.484375 0.890625 508.445312 275.253906 473.746094 134.441406"></polyline>
        <polyline id="Path-4" points="565.027344 174.394531 508.9375 271.113281 642.875 289.390625"></polyline>
        <polyline id="Path-5" points="732.164062 193.300781 510.867188 273.726562 635.195312 126.15625"></polyline>
        <polyline id="Path-6" points="322.242188 225.730469 511.785156 272.101562 352.65625 94.5820312"></polyline>
        <polyline id="Path-7" points="451.28125 380.441406 512.632812 272.929688 333.460938 373.546875"></polyline>
        <polyline id="Path-8" points="506.660156 278.402344 633.066406 392.320312 743.769531 395.558594 625.457031 516.453125"></polyline>
        <polyline id="Path-9" points="506.085938 278.054688 485.539062 455.242188 454.847656 382.199219"></polyline>
        <polygon id="Path-10" points="631.773438 392.503906 486.253906 454.640625 623.242188 516.269531"></polygon>
        <polyline id="Path-11" points="454.953125 382.179688 334.125 374.320312 373.628906 506.113281 483.777344 456.53125 463.554688 593.273438"></polyline>
        <polyline id="Path-12" points="485.101562 456.15625 555.398438 599.988281 722.964844 514.019531 622.011719 515.300781"></polyline>
        <polyline id="Path-13" points="484.265625 455.78125 374.046875 640.457031 375.40625 503.65625 251.4375 411.621094 329.667969 769.132812 464.941406 589.972656 555.222656 599.183594 485.019531 727.507812 633.023438 735.835938 700.296875 640.421875"></polyline>
        <polyline id="Path-14" points="219.910156 532.78125 103.417969 689.644531 75.0859375 571.351562"></polyline>
        <polyline id="Path-15" points="220.535156 534.394531 231.289062 646.535156 74.53125 797.921875 103.65625 686.234375"></polyline>
        <polyline id="Path-16" points="1.171875 696.617188 102.109375 690.410156 230.476562 648.296875"></polyline>
        <path d="M373.898438,641.6875 L332.042969,760.03125" id="Path-17"></path>
        <path d="M622.609375,516.464844 L555.507812,596.632812" id="Path-18"></path>
        <polyline id="Path-20" points="699.777344 639.183594 554.183594 600.980469 631.324219 732.925781"></polyline>
        <path d="M553.742188,600.417969 L341.269531,747.363281" id="Path-21"></path>
        <path d="M212.507812,756.15625 L332.222656,769.46875" id="Path-22"></path>
      </g>
      <polyline id="Path-19" stroke="url(#linearGradient-1)" stroke-width="2" points="262.664062 636.160156 211.144531 329.769531 399.980469 575.765625"></polyline>
      <polyline id="Path-23" stroke="url(#linearGradient-2)" stroke-width="2" points="197.622483 763.733311 -22.1679688 783.667969 265.476562 872.476562"></polyline>
      <path d="M559.747927,177.444671 L399.428812,24.826625" id="Path-24" stroke="url(#linearGradient-2)" stroke-width="2"></path>
      <path d="M532.5,455.5 L407.5,219.5" id="Path-25" stroke="url(#linearGradient-2)" stroke-width="2"></path>
      <g id="Group-10" transform="translate(177.000000, 61.000000)">
        <circle id="red" fill="#A2D7DB" cx="226" cy="763" r="10"></circle>
        <circle id="red" fill="#F4D35E" cx="490" cy="143" r="10"></circle>
        <circle id="red" fill="#A2D7DB" cx="560" cy="830" r="10"></circle>
        <circle id="red" fill="#A2D7DB" cx="570" cy="607" r="10"></circle>
        <circle id="red" fill="#A2D7DB" cx="748" cy="202" r="10"></circle>
        <circle id="red" fill="#A2D7DB" cx="470" cy="390" r="10"></circle>
        <circle id="orange" fill="#517B98" cx="500" cy="733" r="10"></circle>
        <circle id="orange" fill="#517B98" cx="649" cy="133" r="10"></circle>
        <circle id="orange" fill="#517B98" cx="89" cy="810" r="10"></circle>
        <circle id="orange" fill="#517B98" cx="339" cy="234" r="10"></circle>
        <circle id="yellow" fill="#F4D35E" cx="270" cy="422" r="10"></circle>
        <circle id="red" fill="#A2D7DB" cx="580" cy="182" r="10"></circle>
        <circle id="orange" fill="#517B98" cx="389" cy="647" r="10"></circle>
        <circle id="orange" fill="#517B98" cx="389" cy="513" r="10"></circle>
        <circle id="orange" fill="#517B98" cx="639" cy="523" r="10"></circle>
        <circle id="yellow" fill="#F4D35E" cx="119" cy="697" r="10"></circle>
        <circle id="yellow" fill="#F4D35E" cx="246" cy="657" r="10"></circle>
        <circle id="yellow" fill="#F4D35E" cx="649" cy="400" r="10"></circle>
        <circle id="yellow" fill="#F4D35E" cx="748" cy="820" r="10"></circle>
        <circle id="teal" fill="#52B7AF" cx="550" cy="10" r="10"></circle>
        <circle id="teal" fill="#52B7AF" cx="659" cy="294" r="10"></circle>
        <circle id="teal" fill="#52B7AF" cx="649" cy="743" r="10"></circle>
        <circle id="teal" fill="#52B7AF" cx="89" cy="579" r="10"></circle>
        <circle id="teal" fill="#52B7AF" cx="500" cy="463" r="10"></circle>
        <circle id="teal" fill="#52B7AF" cx="738" cy="523" r="10"></circle>
        <g id="Group-9" transform="translate(738.000000, 380.000000)">
          <circle id="yellow" fill="#F4D35E" cx="20" cy="20" r="20"></circle>
          <g id="topic" transform="translate(10.000000, 12.000000)" fill-rule="nonzero" fill="#B29A45">
            <path d="M10.4166667,3.33333333 L9.58333333,3.33333333 C9.58333333,2.11981692 5.69305358,0.90253415 0.833333333,0.836175752 L0.833333333,13.7525804 C5.1847618,13.8066315 8.80728236,14.7058873 9.9999656,16.0783269 C11.1925137,14.7058422 14.8148057,13.8066233 19.1666667,13.7525798 L19.1666667,0.836174951 C14.3064454,0.902521868 10.4166667,2.11972238 10.4166667,3.33333333 Z M19.5833333,0 C19.813452,0 20,0.186548021 20,0.416666667 L20,14.1666667 C20,14.3967853 19.813452,14.5833333 19.5833333,14.5833333 C14.5306821,14.5833333 10.4166667,15.8352316 10.4166667,17.0833333 C10.4166667,17.6388889 9.58333333,17.6388889 9.58333333,17.0833333 C9.58333333,15.8353251 5.46876352,14.5833333 0.416666667,14.5833333 C0.186548021,14.5833333 0,14.3967853 0,14.1666667 L0,0.416666667 C0,0.186548021 0.186548021,0 0.416666667,0 C4.95225809,0 8.76941076,0.912307891 9.9999656,2.3283269 C11.2303771,0.912265818 15.0472706,0 19.5833333,0 Z" id="Stroke-2554"></path>
            <path d="M9.58333333,3.33333333 L9.58333333,16.9533333 C9.58333333,17.183452 9.76988135,17.37 10,17.37 C10.2301186,17.37 10.4166667,17.183452 10.4166667,16.9533333 L10.4166667,3.33333333 C10.4166667,3.10321469 10.2301186,2.91666667 10,2.91666667 C9.76988135,2.91666667 9.58333333,3.10321469 9.58333333,3.33333333 Z" id="Stroke-2555"></path>
            <path d="M8.06577155,4.81109232 C6.66250084,4.27331715 4.71529017,3.89927167 2.52815973,3.75111932 C2.29856722,3.73556713 2.09983818,3.90908109 2.08428599,4.1386736 C2.0687338,4.36826611 2.24224776,4.56699516 2.47184027,4.58254735 C4.58205014,4.72548923 6.44998543,5.08430647 7.76756178,5.58924101 C7.9824416,5.67158936 8.22339265,5.56415138 8.30574101,5.34927155 C8.38808936,5.13439173 8.28065138,4.89344068 8.06577155,4.81109232 Z" id="Stroke-2556"></path>
            <path d="M8.06577155,7.31109232 C6.66250084,6.77331715 4.71529017,6.39927167 2.52815973,6.25111932 C2.29856722,6.23556713 2.09983818,6.40908109 2.08428599,6.6386736 C2.0687338,6.86826611 2.24224776,7.06699516 2.47184027,7.08254735 C4.58205014,7.22548923 6.44998543,7.58430647 7.76756178,8.08924101 C7.9824416,8.17158936 8.22339265,8.06415138 8.30574101,7.84927155 C8.38808936,7.63439173 8.28065138,7.39344068 8.06577155,7.31109232 Z" id="Stroke-2557"></path>
            <path d="M8.06577155,9.81109232 C6.66250084,9.27331715 4.71529017,8.89927167 2.52815973,8.75111932 C2.29856722,8.73556713 2.09983818,8.90908109 2.08428599,9.1386736 C2.0687338,9.36826611 2.24224776,9.56699516 2.47184027,9.58254735 C4.58205014,9.72548923 6.44998543,10.0843065 7.76756178,10.589241 C7.9824416,10.6715894 8.22339265,10.5641514 8.30574101,10.3492716 C8.38808936,10.1343917 8.28065138,9.89344068 8.06577155,9.81109232 Z" id="Stroke-2558"></path>
            <path d="M8.06577155,12.3110923 C6.66250084,11.7733172 4.71529017,11.3992717 2.52815973,11.2511193 C2.29856722,11.2355671 2.09983818,11.4090811 2.08428599,11.6386736 C2.0687338,11.8682661 2.24224776,12.0669952 2.47184027,12.0825473 C4.58205014,12.2254892 6.44998543,12.5843065 7.76756178,13.089241 C7.9824416,13.1715894 8.22339265,13.0641514 8.30574101,12.8492716 C8.38808936,12.6343917 8.28065138,12.3934407 8.06577155,12.3110923 Z" id="Stroke-2559"></path>
            <path d="M12.2323575,5.58927193 C13.5511477,5.08418594 15.4184023,4.72545859 17.5281597,4.58254735 C17.7577522,4.56699516 17.9312662,4.36826611 17.915714,4.1386736 C17.9001618,3.90908109 17.7014328,3.73556713 17.4718403,3.75111932 C15.2852005,3.89923843 13.3387049,4.27318916 11.9343092,4.8110614 C11.7194123,4.89336518 11.6119243,5.13429394 11.6942281,5.34919084 C11.7765318,5.56408775 12.0174606,5.67157571 12.2323575,5.58927193 Z" id="Stroke-2560"></path>
            <path d="M12.2323575,8.08927193 C13.5511477,7.58418594 15.4184023,7.22545859 17.5281597,7.08254735 C17.7577522,7.06699516 17.9312662,6.86826611 17.915714,6.6386736 C17.9001618,6.40908109 17.7014328,6.23556713 17.4718403,6.25111932 C15.2852005,6.39923843 13.3387049,6.77318916 11.9343092,7.3110614 C11.7194123,7.39336518 11.6119243,7.63429394 11.6942281,7.84919084 C11.7765318,8.06408775 12.0174606,8.17157571 12.2323575,8.08927193 Z" id="Stroke-2561"></path>
            <path d="M12.2323575,10.5892719 C13.5511477,10.0841859 15.4184023,9.72545859 17.5281597,9.58254735 C17.7577522,9.56699516 17.9312662,9.36826611 17.915714,9.1386736 C17.9001618,8.90908109 17.7014328,8.73556713 17.4718403,8.75111932 C15.2852005,8.89923843 13.3387049,9.27318916 11.9343092,9.8110614 C11.7194123,9.89336518 11.6119243,10.1342939 11.6942281,10.3491908 C11.7765318,10.5640877 12.0174606,10.6715757 12.2323575,10.5892719 Z" id="Stroke-2562"></path>
            <path d="M12.2323575,13.0892719 C13.5511477,12.5841859 15.4184023,12.2254586 17.5281597,12.0825473 C17.7577522,12.0669952 17.9312662,11.8682661 17.915714,11.6386736 C17.9001618,11.4090811 17.7014328,11.2355671 17.4718403,11.2511193 C15.2852005,11.3992384 13.3387049,11.7731892 11.9343092,12.3110614 C11.7194123,12.3933652 11.6119243,12.6342939 11.6942281,12.8491908 C11.7765318,13.0640877 12.0174606,13.1715757 12.2323575,13.0892719 Z" id="Stroke-2563"></path>
          </g>
        </g>
        <g id="Group-7" transform="translate(329.000000, 360.000000)">
          <circle id="teal" fill="#52B7AF" cx="20" cy="20" r="20"></circle>
          <g id="person" transform="translate(11.000000, 10.000000)" fill-rule="nonzero" fill="#3C8680">
            <path d="M2.11165986,14.8348465 C0.845017278,15.287825 0,16.4865493 0,17.8310909 L0,19.5456364 C0,19.7966749 0.203506932,20.0001818 0.454545455,20.0001818 L17.7272727,20.0001818 C17.9783112,20.0001818 18.1818182,19.7966749 18.1818182,19.5456364 L18.1818182,17.8310909 C18.1818182,16.4865493 17.3368009,15.287825 16.0703346,14.8349095 L11.8181818,13.3162229 L11.8181818,10.9947273 L10.9090909,10.9947273 L10.9090909,13.6365455 C10.9090909,13.8286404 11.0298477,13.9999972 11.2107508,14.064608 L15.7643871,15.6909717 C16.6691746,16.0145431 17.2727273,16.8707306 17.2727273,17.8310909 L17.2727273,19.0910909 L0.909090909,19.0910909 L0.909090909,17.8310909 C0.909090909,16.8707306 1.5126436,16.0145431 2.41760728,15.6909087 L6.97106741,14.064608 C7.1519705,13.9999972 7.27272727,13.8286404 7.27272727,13.6365455 L7.27272727,11.1647273 L6.36363636,11.1647273 L6.36363636,13.3162228 L2.11165986,14.8348465 Z" id="Stroke-1186"></path>
            <path d="M13.0681818,6.36363636 C13.0681818,3.58632932 11.2159803,1.36363636 8.97727273,1.36363636 C6.73798637,1.36363636 4.88636364,3.58594179 4.88636364,6.36363636 C4.88636364,9.14133094 6.73798637,11.3636364 8.97727273,11.3636364 C11.2159803,11.3636364 13.0681818,9.14094341 13.0681818,6.36363636 Z M13.9772727,6.36363636 C13.9772727,9.61009127 11.7584605,12.2727273 8.97727273,12.2727273 C6.19547345,12.2727273 3.97727273,9.61045735 3.97727273,6.36363636 C3.97727273,3.11681538 6.19547345,0.454545455 8.97727273,0.454545455 C11.7584605,0.454545455 13.9772727,3.11718146 13.9772727,6.36363636 Z" id="Stroke-1187"></path>
          </g>
        </g>
        <g id="Group-6" transform="translate(196.000000, 497.000000)">
          <circle id="red" fill="#A2D7DB" cx="40" cy="40" r="40"></circle>
          <g id="paper" transform="translate(25.000000, 20.000000)" fill-rule="nonzero" fill="#769DA0">
            <path d="M28.3333333,11.1785113 L18.8214887,1.66666667 L1.66666667,1.66666667 L1.66666667,38.3333333 L28.3333333,38.3333333 L28.3333333,11.1785113 Z M29.1666667,40 L0.833333333,40 C0.373096042,40 0,39.626904 0,39.1666667 L0,0.833333333 C0,0.373096042 0.373096042,0 0.833333333,0 L19.1666667,0 C19.3876804,0 19.599642,0.087797367 19.7559223,0.244077682 L29.7559223,10.2440777 C29.9122026,10.400358 30,10.6123196 30,10.8333333 L30,39.1666667 C30,39.626904 29.626904,40 29.1666667,40 Z" id="Stroke-8281"></path>
            <path d="M20,0.833333333 C20,0.373096042 19.626904,0 19.1666667,0 C18.7064294,0 18.3333333,0.373096042 18.3333333,0.833333333 L18.3333333,10.8333333 C18.3333333,11.2935706 18.7064294,11.6666667 19.1666667,11.6666667 L29.1666667,11.6666667 C29.626904,11.6666667 30,11.2935706 30,10.8333333 C30,10.373096 29.626904,10 29.1666667,10 L20,10 L20,0.833333333 Z" id="Stroke-8282"></path>
            <path d="M7.5,13.3333333 L15,13.3333333 C15.4602373,13.3333333 15.8333333,12.9602373 15.8333333,12.5 C15.8333333,12.0397627 15.4602373,11.6666667 15,11.6666667 L7.5,11.6666667 C7.03976271,11.6666667 6.66666667,12.0397627 6.66666667,12.5 C6.66666667,12.9602373 7.03976271,13.3333333 7.5,13.3333333 Z" id="Stroke-8283"></path>
            <path d="M7.5,18.3333333 L22.5,18.3333333 C22.9602373,18.3333333 23.3333333,17.9602373 23.3333333,17.5 C23.3333333,17.0397627 22.9602373,16.6666667 22.5,16.6666667 L7.5,16.6666667 C7.03976271,16.6666667 6.66666667,17.0397627 6.66666667,17.5 C6.66666667,17.9602373 7.03976271,18.3333333 7.5,18.3333333 Z" id="Stroke-8284"></path>
            <path d="M7.5,23.3333333 L22.5,23.3333333 C22.9602373,23.3333333 23.3333333,22.9602373 23.3333333,22.5 C23.3333333,22.0397627 22.9602373,21.6666667 22.5,21.6666667 L7.5,21.6666667 C7.03976271,21.6666667 6.66666667,22.0397627 6.66666667,22.5 C6.66666667,22.9602373 7.03976271,23.3333333 7.5,23.3333333 Z" id="Stroke-8285"></path>
            <path d="M7.5,28.3333333 L22.5,28.3333333 C22.9602373,28.3333333 23.3333333,27.9602373 23.3333333,27.5 C23.3333333,27.0397627 22.9602373,26.6666667 22.5,26.6666667 L7.5,26.6666667 C7.03976271,26.6666667 6.66666667,27.0397627 6.66666667,27.5 C6.66666667,27.9602373 7.03976271,28.3333333 7.5,28.3333333 Z" id="Stroke-8286"></path>
            <path d="M7.5,33.3333333 L22.5,33.3333333 C22.9602373,33.3333333 23.3333333,32.9602373 23.3333333,32.5 C23.3333333,32.0397627 22.9602373,31.6666667 22.5,31.6666667 L7.5,31.6666667 C7.03976271,31.6666667 6.66666667,32.0397627 6.66666667,32.5 C6.66666667,32.9602373 7.03976271,33.3333333 7.5,33.3333333 Z" id="Stroke-8287"></path>
          </g>
        </g>
        <g id="Group" transform="translate(309.000000, 733.000000)">
          <circle id="teal" fill="#52B7AF" cx="40" cy="40" r="40"></circle>
          <g id="person" transform="translate(22.000000, 20.000000)" fill-rule="nonzero" fill="#3C8680">
            <path d="M4.22331972,29.669693 C1.69003456,30.57565 0,32.9730986 0,35.6621818 L0,39.0912727 C0,39.5933498 0.407013864,40.0003636 0.909090909,40.0003636 L35.4545455,40.0003636 C35.9566225,40.0003636 36.3636364,39.5933498 36.3636364,39.0912727 L36.3636364,35.6621818 C36.3636364,32.9730986 34.6736018,30.57565 32.1406691,29.669819 L23.6363636,26.6324457 L23.6363636,21.9894545 L21.8181818,21.9894545 L21.8181818,27.2730909 C21.8181818,27.6572809 22.0596954,27.9999944 22.4215015,28.1292161 L31.5287743,31.3819433 C33.3383492,32.0290862 34.5454545,33.7414613 34.5454545,35.6621818 L34.5454545,38.1821818 L1.81818182,38.1821818 L1.81818182,35.6621818 C1.81818182,33.7414613 3.0252872,32.0290862 4.83521457,31.3818174 L13.9421348,28.1292161 C14.303941,27.9999944 14.5454545,27.6572809 14.5454545,27.2730909 L14.5454545,22.3294545 L12.7272727,22.3294545 L12.7272727,26.6324457 L4.22331972,29.669693 Z" id="Stroke-1186"></path>
            <path d="M26.1363636,12.7272727 C26.1363636,7.17265864 22.4319607,2.72727273 17.9545455,2.72727273 C13.4759727,2.72727273 9.77272727,7.17188357 9.77272727,12.7272727 C9.77272727,18.2826619 13.4759727,22.7272727 17.9545455,22.7272727 C22.4319607,22.7272727 26.1363636,18.2818868 26.1363636,12.7272727 Z M27.9545455,12.7272727 C27.9545455,19.2201825 23.5169209,24.5454545 17.9545455,24.5454545 C12.3909469,24.5454545 7.95454545,19.2209147 7.95454545,12.7272727 C7.95454545,6.23363076 12.3909469,0.909090909 17.9545455,0.909090909 C23.5169209,0.909090909 27.9545455,6.23436292 27.9545455,12.7272727 Z" id="Stroke-1187"></path>
          </g>
        </g>
        <g id="Group-2" transform="translate(480.000000, 244.000000)">
          <circle id="orange" fill="#517B98" cx="40" cy="40" r="40"></circle>
          <g id="school" transform="translate(20.000000, 20.000000)" fill-rule="nonzero" fill="#84AAC5">
            <path d="M34.1666667,13.3333333 C34.626904,13.3333333 35,13.7064294 35,14.1666667 L35,32.5 C35,32.9602373 34.626904,33.3333333 34.1666667,33.3333333 L5.83333333,33.3333333 C5.37309604,33.3333333 5,32.9602373 5,32.5 L5,14.1666667 C5,13.7064294 5.37309604,13.3333333 5.83333333,13.3333333 L34.1666667,13.3333333 Z M6.66666667,15 L6.66666667,31.6666667 L33.3333333,31.6666667 L33.3333333,15 L6.66666667,15 Z" id="Stroke-8173"></path>
            <path d="M39.1666667,38.3333333 L0.833333333,38.3333333 C0.373096042,38.3333333 0,38.7064294 0,39.1666667 C0,39.626904 0.373096042,40 0.833333333,40 L39.1666667,40 C39.626904,40 40,39.626904 40,39.1666667 C40,38.7064294 39.626904,38.3333333 39.1666667,38.3333333 Z" id="Stroke-8174"></path>
            <path d="M35,33.3333333 L5,33.3333333 L5,35 L35,35 L35,33.3333333 Z M35.8333333,36.6666667 L4.16666667,36.6666667 C3.70642938,36.6666667 3.33333333,36.2935706 3.33333333,35.8333333 L3.33333333,32.5 C3.33333333,32.0397627 3.70642938,31.6666667 4.16666667,31.6666667 L35.8333333,31.6666667 C36.2935706,31.6666667 36.6666667,32.0397627 36.6666667,32.5 L36.6666667,35.8333333 C36.6666667,36.2935706 36.2935706,36.6666667 35.8333333,36.6666667 Z" id="Stroke-8175"></path>
            <path d="M8.33333333,14.1666667 L8.33333333,32.5 C8.33333333,32.9602373 8.70642938,33.3333333 9.16666667,33.3333333 C9.62690396,33.3333333 10,32.9602373 10,32.5 L10,14.1666667 C10,13.7064294 9.62690396,13.3333333 9.16666667,13.3333333 C8.70642938,13.3333333 8.33333333,13.7064294 8.33333333,14.1666667 Z" id="Stroke-8176"></path>
            <path d="M16.6666667,14.1666667 L16.6666667,32.5 C16.6666667,32.9602373 17.0397627,33.3333333 17.5,33.3333333 C17.9602373,33.3333333 18.3333333,32.9602373 18.3333333,32.5 L18.3333333,14.1666667 C18.3333333,13.7064294 17.9602373,13.3333333 17.5,13.3333333 C17.0397627,13.3333333 16.6666667,13.7064294 16.6666667,14.1666667 Z" id="Stroke-8177"></path>
            <path d="M13.3333333,14.1666667 L13.3333333,32.5 C13.3333333,32.9602373 13.7064294,33.3333333 14.1666667,33.3333333 C14.626904,33.3333333 15,32.9602373 15,32.5 L15,14.1666667 C15,13.7064294 14.626904,13.3333333 14.1666667,13.3333333 C13.7064294,13.3333333 13.3333333,13.7064294 13.3333333,14.1666667 Z" id="Stroke-8178"></path>
            <path d="M21.6666667,14.1666667 L21.6666667,32.5 C21.6666667,32.9602373 22.0397627,33.3333333 22.5,33.3333333 C22.9602373,33.3333333 23.3333333,32.9602373 23.3333333,32.5 L23.3333333,14.1666667 C23.3333333,13.7064294 22.9602373,13.3333333 22.5,13.3333333 C22.0397627,13.3333333 21.6666667,13.7064294 21.6666667,14.1666667 Z" id="Stroke-8179"></path>
            <path d="M25,14.1666667 L25,32.5 C25,32.9602373 25.373096,33.3333333 25.8333333,33.3333333 C26.2935706,33.3333333 26.6666667,32.9602373 26.6666667,32.5 L26.6666667,14.1666667 C26.6666667,13.7064294 26.2935706,13.3333333 25.8333333,13.3333333 C25.373096,13.3333333 25,13.7064294 25,14.1666667 Z" id="Stroke-8180"></path>
            <path d="M30,14.1666667 L30,32.5 C30,32.9602373 30.373096,33.3333333 30.8333333,33.3333333 C31.2935706,33.3333333 31.6666667,32.9602373 31.6666667,32.5 L31.6666667,14.1666667 C31.6666667,13.7064294 31.2935706,13.3333333 30.8333333,13.3333333 C30.373096,13.3333333 30,13.7064294 30,14.1666667 Z" id="Stroke-8181"></path>
            <path d="M35.8333333,10.8333333 C35.8333333,11.2935706 35.4602373,11.6666667 35,11.6666667 L5,11.6666667 C4.53976271,11.6666667 4.16666667,11.2935706 4.16666667,10.8333333 C4.16666667,4.43577656 9.4484963,0 20,0 C30.5515037,0 35.8333333,4.43577656 35.8333333,10.8333333 Z M20,1.66666667 C10.8168841,1.66666667 6.31525794,5.04441848 5.87007962,10 L34.1299204,10 C33.6847421,5.04441848 29.1831159,1.66666667 20,1.66666667 Z" id="Stroke-8182"></path>
            <path d="M37.5,10 C37.9602373,10 38.3333333,10.373096 38.3333333,10.8333333 L38.3333333,14.1666667 C38.3333333,14.626904 37.9602373,15 37.5,15 L2.5,15 C2.03976271,15 1.66666667,14.626904 1.66666667,14.1666667 L1.66666667,10.8333333 C1.66666667,10.373096 2.03976271,10 2.5,10 L37.5,10 Z M3.33333333,11.6666667 L3.33333333,13.3333333 L36.6666667,13.3333333 L36.6666667,11.6666667 L3.33333333,11.6666667 Z" id="Stroke-8183"></path>
            <path d="M12.5,6.66666667 C12.5,5.98602876 15.4580863,5 17.5,5 C17.9602373,5 18.3333333,4.62690396 18.3333333,4.16666667 C18.3333333,3.70642938 17.9602373,3.33333333 17.5,3.33333333 C14.5419137,3.33333333 10.8333333,4.56952679 10.8333333,6.66666667 C10.8333333,7.12690396 11.2064294,7.5 11.6666667,7.5 C12.126904,7.5 12.5,7.12690396 12.5,6.66666667 Z" id="Stroke-8184"></path>
            <path d="M0.833333333,36.6666667 L39.1666667,36.6666667 C39.626904,36.6666667 40,36.2935706 40,35.8333333 C40,35.373096 39.626904,35 39.1666667,35 L0.833333333,35 C0.373096042,35 0,35.373096 0,35.8333333 C0,36.2935706 0.373096042,36.6666667 0.833333333,36.6666667 Z" id="Stroke-8185"></path>
          </g>
        </g>
        <g id="Group-3" transform="translate(0.000000, 683.000000)">
          <circle id="orange" fill="#517B98" cx="20" cy="20" r="20"></circle>
          <g id="school" transform="translate(10.000000, 10.000000)" fill-rule="nonzero" fill="#84AAC5">
            <path d="M17.0833333,6.66666667 C17.313452,6.66666667 17.5,6.85321469 17.5,7.08333333 L17.5,16.25 C17.5,16.4801186 17.313452,16.6666667 17.0833333,16.6666667 L2.91666667,16.6666667 C2.68654802,16.6666667 2.5,16.4801186 2.5,16.25 L2.5,7.08333333 C2.5,6.85321469 2.68654802,6.66666667 2.91666667,6.66666667 L17.0833333,6.66666667 Z M3.33333333,7.5 L3.33333333,15.8333333 L16.6666667,15.8333333 L16.6666667,7.5 L3.33333333,7.5 Z" id="Stroke-8173"></path>
            <path d="M19.5833333,19.1666667 L0.416666667,19.1666667 C0.186548021,19.1666667 0,19.3532147 0,19.5833333 C0,19.813452 0.186548021,20 0.416666667,20 L19.5833333,20 C19.813452,20 20,19.813452 20,19.5833333 C20,19.3532147 19.813452,19.1666667 19.5833333,19.1666667 Z" id="Stroke-8174"></path>
            <path d="M17.5,16.6666667 L2.5,16.6666667 L2.5,17.5 L17.5,17.5 L17.5,16.6666667 Z M17.9166667,18.3333333 L2.08333333,18.3333333 C1.85321469,18.3333333 1.66666667,18.1467853 1.66666667,17.9166667 L1.66666667,16.25 C1.66666667,16.0198814 1.85321469,15.8333333 2.08333333,15.8333333 L17.9166667,15.8333333 C18.1467853,15.8333333 18.3333333,16.0198814 18.3333333,16.25 L18.3333333,17.9166667 C18.3333333,18.1467853 18.1467853,18.3333333 17.9166667,18.3333333 Z" id="Stroke-8175"></path>
            <path d="M4.16666667,7.08333333 L4.16666667,16.25 C4.16666667,16.4801186 4.35321469,16.6666667 4.58333333,16.6666667 C4.81345198,16.6666667 5,16.4801186 5,16.25 L5,7.08333333 C5,6.85321469 4.81345198,6.66666667 4.58333333,6.66666667 C4.35321469,6.66666667 4.16666667,6.85321469 4.16666667,7.08333333 Z" id="Stroke-8176"></path>
            <path d="M8.33333333,7.08333333 L8.33333333,16.25 C8.33333333,16.4801186 8.51988135,16.6666667 8.75,16.6666667 C8.98011865,16.6666667 9.16666667,16.4801186 9.16666667,16.25 L9.16666667,7.08333333 C9.16666667,6.85321469 8.98011865,6.66666667 8.75,6.66666667 C8.51988135,6.66666667 8.33333333,6.85321469 8.33333333,7.08333333 Z" id="Stroke-8177"></path>
            <path d="M6.66666667,7.08333333 L6.66666667,16.25 C6.66666667,16.4801186 6.85321469,16.6666667 7.08333333,16.6666667 C7.31345198,16.6666667 7.5,16.4801186 7.5,16.25 L7.5,7.08333333 C7.5,6.85321469 7.31345198,6.66666667 7.08333333,6.66666667 C6.85321469,6.66666667 6.66666667,6.85321469 6.66666667,7.08333333 Z" id="Stroke-8178"></path>
            <path d="M10.8333333,7.08333333 L10.8333333,16.25 C10.8333333,16.4801186 11.0198814,16.6666667 11.25,16.6666667 C11.4801186,16.6666667 11.6666667,16.4801186 11.6666667,16.25 L11.6666667,7.08333333 C11.6666667,6.85321469 11.4801186,6.66666667 11.25,6.66666667 C11.0198814,6.66666667 10.8333333,6.85321469 10.8333333,7.08333333 Z" id="Stroke-8179"></path>
            <path d="M12.5,7.08333333 L12.5,16.25 C12.5,16.4801186 12.686548,16.6666667 12.9166667,16.6666667 C13.1467853,16.6666667 13.3333333,16.4801186 13.3333333,16.25 L13.3333333,7.08333333 C13.3333333,6.85321469 13.1467853,6.66666667 12.9166667,6.66666667 C12.686548,6.66666667 12.5,6.85321469 12.5,7.08333333 Z" id="Stroke-8180"></path>
            <path d="M15,7.08333333 L15,16.25 C15,16.4801186 15.186548,16.6666667 15.4166667,16.6666667 C15.6467853,16.6666667 15.8333333,16.4801186 15.8333333,16.25 L15.8333333,7.08333333 C15.8333333,6.85321469 15.6467853,6.66666667 15.4166667,6.66666667 C15.186548,6.66666667 15,6.85321469 15,7.08333333 Z" id="Stroke-8181"></path>
            <path d="M17.9166667,5.41666667 C17.9166667,5.64678531 17.7301186,5.83333333 17.5,5.83333333 L2.5,5.83333333 C2.26988135,5.83333333 2.08333333,5.64678531 2.08333333,5.41666667 C2.08333333,2.21788828 4.72424815,0 10,0 C15.2757519,0 17.9166667,2.21788828 17.9166667,5.41666667 Z M10,0.833333333 C5.40844203,0.833333333 3.15762897,2.52220924 2.93503981,5 L17.0649602,5 C16.842371,2.52220924 14.591558,0.833333333 10,0.833333333 Z" id="Stroke-8182"></path>
            <path d="M18.75,5 C18.9801186,5 19.1666667,5.18654802 19.1666667,5.41666667 L19.1666667,7.08333333 C19.1666667,7.31345198 18.9801186,7.5 18.75,7.5 L1.25,7.5 C1.01988135,7.5 0.833333333,7.31345198 0.833333333,7.08333333 L0.833333333,5.41666667 C0.833333333,5.18654802 1.01988135,5 1.25,5 L18.75,5 Z M1.66666667,5.83333333 L1.66666667,6.66666667 L18.3333333,6.66666667 L18.3333333,5.83333333 L1.66666667,5.83333333 Z" id="Stroke-8183"></path>
            <path d="M6.25,3.33333333 C6.25,2.99301438 7.72904314,2.5 8.75,2.5 C8.98011865,2.5 9.16666667,2.31345198 9.16666667,2.08333333 C9.16666667,1.85321469 8.98011865,1.66666667 8.75,1.66666667 C7.27095686,1.66666667 5.41666667,2.2847634 5.41666667,3.33333333 C5.41666667,3.56345198 5.60321469,3.75 5.83333333,3.75 C6.06345198,3.75 6.25,3.56345198 6.25,3.33333333 Z" id="Stroke-8184"></path>
            <path d="M0.416666667,18.3333333 L19.5833333,18.3333333 C19.813452,18.3333333 20,18.1467853 20,17.9166667 C20,17.686548 19.813452,17.5 19.5833333,17.5 L0.416666667,17.5 C0.186548021,17.5 0,17.686548 0,17.9166667 C0,18.1467853 0.186548021,18.3333333 0.416666667,18.3333333 Z" id="Stroke-8185"></path>
          </g>
        </g>
        <g id="Group-4" transform="translate(349.000000, 83.000000)">
          <circle id="red" fill="#A2D7DB" cx="20" cy="20" r="20"></circle>
          <g id="paper" transform="translate(13.000000, 10.000000)" fill-rule="nonzero" fill="#769DA0">
            <path d="M14.1666667,5.58925565 L9.41074435,0.833333333 L0.833333333,0.833333333 L0.833333333,19.1666667 L14.1666667,19.1666667 L14.1666667,5.58925565 Z M14.5833333,20 L0.416666667,20 C0.186548021,20 0,19.813452 0,19.5833333 L0,0.416666667 C0,0.186548021 0.186548021,0 0.416666667,0 L9.58333333,0 C9.6938402,0 9.799821,0.0438986835 9.87796116,0.122038841 L14.8779612,5.12203884 C14.9561013,5.200179 15,5.3061598 15,5.41666667 L15,19.5833333 C15,19.813452 14.813452,20 14.5833333,20 Z" id="Stroke-8281"></path>
            <path d="M10,0.416666667 C10,0.186548021 9.81345198,0 9.58333333,0 C9.35321469,0 9.16666667,0.186548021 9.16666667,0.416666667 L9.16666667,5.41666667 C9.16666667,5.64678531 9.35321469,5.83333333 9.58333333,5.83333333 L14.5833333,5.83333333 C14.813452,5.83333333 15,5.64678531 15,5.41666667 C15,5.18654802 14.813452,5 14.5833333,5 L10,5 L10,0.416666667 Z" id="Stroke-8282"></path>
            <path d="M3.75,6.66666667 L7.5,6.66666667 C7.73011865,6.66666667 7.91666667,6.48011865 7.91666667,6.25 C7.91666667,6.01988135 7.73011865,5.83333333 7.5,5.83333333 L3.75,5.83333333 C3.51988135,5.83333333 3.33333333,6.01988135 3.33333333,6.25 C3.33333333,6.48011865 3.51988135,6.66666667 3.75,6.66666667 Z" id="Stroke-8283"></path>
            <path d="M3.75,9.16666667 L11.25,9.16666667 C11.4801186,9.16666667 11.6666667,8.98011865 11.6666667,8.75 C11.6666667,8.51988135 11.4801186,8.33333333 11.25,8.33333333 L3.75,8.33333333 C3.51988135,8.33333333 3.33333333,8.51988135 3.33333333,8.75 C3.33333333,8.98011865 3.51988135,9.16666667 3.75,9.16666667 Z" id="Stroke-8284"></path>
            <path d="M3.75,11.6666667 L11.25,11.6666667 C11.4801186,11.6666667 11.6666667,11.4801186 11.6666667,11.25 C11.6666667,11.0198814 11.4801186,10.8333333 11.25,10.8333333 L3.75,10.8333333 C3.51988135,10.8333333 3.33333333,11.0198814 3.33333333,11.25 C3.33333333,11.4801186 3.51988135,11.6666667 3.75,11.6666667 Z" id="Stroke-8285"></path>
            <path d="M3.75,14.1666667 L11.25,14.1666667 C11.4801186,14.1666667 11.6666667,13.9801186 11.6666667,13.75 C11.6666667,13.5198814 11.4801186,13.3333333 11.25,13.3333333 L3.75,13.3333333 C3.51988135,13.3333333 3.33333333,13.5198814 3.33333333,13.75 C3.33333333,13.9801186 3.51988135,14.1666667 3.75,14.1666667 Z" id="Stroke-8286"></path>
            <path d="M3.75,16.6666667 L11.25,16.6666667 C11.4801186,16.6666667 11.6666667,16.4801186 11.6666667,16.25 C11.6666667,16.0198814 11.4801186,15.8333333 11.25,15.8333333 L3.75,15.8333333 C3.51988135,15.8333333 3.33333333,16.0198814 3.33333333,16.25 C3.33333333,16.4801186 3.51988135,16.6666667 3.75,16.6666667 Z" id="Stroke-8287"></path>
          </g>
        </g>
        <g id="Group-5" transform="translate(460.000000, 577.000000)">
          <circle id="red" fill="#A2D7DB" cx="20" cy="20" r="20"></circle>
          <g id="paper" transform="translate(13.000000, 10.000000)" fill-rule="nonzero" fill="#769DA0">
            <path d="M14.1666667,5.58925565 L9.41074435,0.833333333 L0.833333333,0.833333333 L0.833333333,19.1666667 L14.1666667,19.1666667 L14.1666667,5.58925565 Z M14.5833333,20 L0.416666667,20 C0.186548021,20 0,19.813452 0,19.5833333 L0,0.416666667 C0,0.186548021 0.186548021,0 0.416666667,0 L9.58333333,0 C9.6938402,0 9.799821,0.0438986835 9.87796116,0.122038841 L14.8779612,5.12203884 C14.9561013,5.200179 15,5.3061598 15,5.41666667 L15,19.5833333 C15,19.813452 14.813452,20 14.5833333,20 Z" id="Stroke-8281"></path>
            <path d="M10,0.416666667 C10,0.186548021 9.81345198,0 9.58333333,0 C9.35321469,0 9.16666667,0.186548021 9.16666667,0.416666667 L9.16666667,5.41666667 C9.16666667,5.64678531 9.35321469,5.83333333 9.58333333,5.83333333 L14.5833333,5.83333333 C14.813452,5.83333333 15,5.64678531 15,5.41666667 C15,5.18654802 14.813452,5 14.5833333,5 L10,5 L10,0.416666667 Z" id="Stroke-8282"></path>
            <path d="M3.75,6.66666667 L7.5,6.66666667 C7.73011865,6.66666667 7.91666667,6.48011865 7.91666667,6.25 C7.91666667,6.01988135 7.73011865,5.83333333 7.5,5.83333333 L3.75,5.83333333 C3.51988135,5.83333333 3.33333333,6.01988135 3.33333333,6.25 C3.33333333,6.48011865 3.51988135,6.66666667 3.75,6.66666667 Z" id="Stroke-8283"></path>
            <path d="M3.75,9.16666667 L11.25,9.16666667 C11.4801186,9.16666667 11.6666667,8.98011865 11.6666667,8.75 C11.6666667,8.51988135 11.4801186,8.33333333 11.25,8.33333333 L3.75,8.33333333 C3.51988135,8.33333333 3.33333333,8.51988135 3.33333333,8.75 C3.33333333,8.98011865 3.51988135,9.16666667 3.75,9.16666667 Z" id="Stroke-8284"></path>
            <path d="M3.75,11.6666667 L11.25,11.6666667 C11.4801186,11.6666667 11.6666667,11.4801186 11.6666667,11.25 C11.6666667,11.0198814 11.4801186,10.8333333 11.25,10.8333333 L3.75,10.8333333 C3.51988135,10.8333333 3.33333333,11.0198814 3.33333333,11.25 C3.33333333,11.4801186 3.51988135,11.6666667 3.75,11.6666667 Z" id="Stroke-8285"></path>
            <path d="M3.75,14.1666667 L11.25,14.1666667 C11.4801186,14.1666667 11.6666667,13.9801186 11.6666667,13.75 C11.6666667,13.5198814 11.4801186,13.3333333 11.25,13.3333333 L3.75,13.3333333 C3.51988135,13.3333333 3.33333333,13.5198814 3.33333333,13.75 C3.33333333,13.9801186 3.51988135,14.1666667 3.75,14.1666667 Z" id="Stroke-8286"></path>
            <path d="M3.75,16.6666667 L11.25,16.6666667 C11.4801186,16.6666667 11.6666667,16.4801186 11.6666667,16.25 C11.6666667,16.0198814 11.4801186,15.8333333 11.25,15.8333333 L3.75,15.8333333 C3.51988135,15.8333333 3.33333333,16.0198814 3.33333333,16.25 C3.33333333,16.4801186 3.51988135,16.6666667 3.75,16.6666667 Z" id="Stroke-8287"></path>
          </g>
        </g>
        <g id="Group-8" transform="translate(678.000000, 607.000000)">
          <circle id="yellow" fill="#F4D35E" cx="40" cy="40" r="40"></circle>
          <g id="topic" transform="translate(20.000000, 23.000000)" fill-rule="nonzero" fill="#B29A45">
            <path d="M20.8333333,6.66666667 L19.1666667,6.66666667 C19.1666667,4.23963384 11.3861072,1.8050683 1.66666667,1.6723515 L1.66666667,27.5051608 C10.3695236,27.6132631 17.6145647,29.4117747 19.9999312,32.1566538 C22.3850274,29.4116844 29.6296114,27.6132466 38.3333333,27.5051596 L38.3333333,1.6723499 C28.6128908,1.80504374 20.8333333,4.23944476 20.8333333,6.66666667 Z M39.1666667,0 C39.626904,0 40,0.373096042 40,0.833333333 L40,28.3333333 C40,28.7935706 39.626904,29.1666667 39.1666667,29.1666667 C29.0613641,29.1666667 20.8333333,31.6704632 20.8333333,34.1666667 C20.8333333,35.2777778 19.1666667,35.2777778 19.1666667,34.1666667 C19.1666667,31.6706502 10.937527,29.1666667 0.833333333,29.1666667 C0.373096042,29.1666667 0,28.7935706 0,28.3333333 L0,0.833333333 C0,0.373096042 0.373096042,0 0.833333333,0 C9.90451617,0 17.5388215,1.82461578 19.9999312,4.65665379 C22.4607542,1.82453164 30.0945411,0 39.1666667,0 Z" id="Stroke-2554"></path>
            <path d="M19.1666667,6.66666667 L19.1666667,33.9066667 C19.1666667,34.366904 19.5397627,34.74 20,34.74 C20.4602373,34.74 20.8333333,34.366904 20.8333333,33.9066667 L20.8333333,6.66666667 C20.8333333,6.20642938 20.4602373,5.83333333 20,5.83333333 C19.5397627,5.83333333 19.1666667,6.20642938 19.1666667,6.66666667 Z" id="Stroke-2555"></path>
            <path d="M16.1315431,9.62218465 C13.3250017,8.5466343 9.43058035,7.79854334 5.05631946,7.50223864 C4.59713445,7.47113426 4.19967636,7.81816218 4.16857197,8.2773472 C4.13746759,8.73653222 4.48449552,9.13399031 4.94368054,9.16509469 C9.16410028,9.45097846 12.8999709,10.1686129 15.5351236,11.178482 C15.9648832,11.3431787 16.4467853,11.1283028 16.611482,10.6985431 C16.7761787,10.2687835 16.5613028,9.78688136 16.1315431,9.62218465 Z" id="Stroke-2556"></path>
            <path d="M16.1315431,14.6221846 C13.3250017,13.5466343 9.43058035,12.7985433 5.05631946,12.5022386 C4.59713445,12.4711343 4.19967636,12.8181622 4.16857197,13.2773472 C4.13746759,13.7365322 4.48449552,14.1339903 4.94368054,14.1650947 C9.16410028,14.4509785 12.8999709,15.1686129 15.5351236,16.178482 C15.9648832,16.3431787 16.4467853,16.1283028 16.611482,15.6985431 C16.7761787,15.2687835 16.5613028,14.7868814 16.1315431,14.6221846 Z" id="Stroke-2557"></path>
            <path d="M16.1315431,19.6221846 C13.3250017,18.5466343 9.43058035,17.7985433 5.05631946,17.5022386 C4.59713445,17.4711343 4.19967636,17.8181622 4.16857197,18.2773472 C4.13746759,18.7365322 4.48449552,19.1339903 4.94368054,19.1650947 C9.16410028,19.4509785 12.8999709,20.1686129 15.5351236,21.178482 C15.9648832,21.3431787 16.4467853,21.1283028 16.611482,20.6985431 C16.7761787,20.2687835 16.5613028,19.7868814 16.1315431,19.6221846 Z" id="Stroke-2558"></path>
            <path d="M16.1315431,24.6221846 C13.3250017,23.5466343 9.43058035,22.7985433 5.05631946,22.5022386 C4.59713445,22.4711343 4.19967636,22.8181622 4.16857197,23.2773472 C4.13746759,23.7365322 4.48449552,24.1339903 4.94368054,24.1650947 C9.16410028,24.4509785 12.8999709,25.1686129 15.5351236,26.178482 C15.9648832,26.3431787 16.4467853,26.1283028 16.611482,25.6985431 C16.7761787,25.2687835 16.5613028,24.7868814 16.1315431,24.6221846 Z" id="Stroke-2559"></path>
            <path d="M24.464715,11.1785439 C27.1022953,10.1683719 30.8368046,9.45091717 35.0563195,9.16509469 C35.5155045,9.13399031 35.8625324,8.73653222 35.831428,8.2773472 C35.8003236,7.81816218 35.4028656,7.47113426 34.9436805,7.50223864 C30.570401,7.79847686 26.6774099,8.54637831 23.8686183,9.62212281 C23.4388245,9.78673037 23.2238486,10.2685879 23.3884561,10.6983817 C23.5530637,11.1281755 24.0349212,11.3431514 24.464715,11.1785439 Z" id="Stroke-2560"></path>
            <path d="M24.464715,16.1785439 C27.1022953,15.1683719 30.8368046,14.4509172 35.0563195,14.1650947 C35.5155045,14.1339903 35.8625324,13.7365322 35.831428,13.2773472 C35.8003236,12.8181622 35.4028656,12.4711343 34.9436805,12.5022386 C30.570401,12.7984769 26.6774099,13.5463783 23.8686183,14.6221228 C23.4388245,14.7867304 23.2238486,15.2685879 23.3884561,15.6983817 C23.5530637,16.1281755 24.0349212,16.3431514 24.464715,16.1785439 Z" id="Stroke-2561"></path>
            <path d="M24.464715,21.1785439 C27.1022953,20.1683719 30.8368046,19.4509172 35.0563195,19.1650947 C35.5155045,19.1339903 35.8625324,18.7365322 35.831428,18.2773472 C35.8003236,17.8181622 35.4028656,17.4711343 34.9436805,17.5022386 C30.570401,17.7984769 26.6774099,18.5463783 23.8686183,19.6221228 C23.4388245,19.7867304 23.2238486,20.2685879 23.3884561,20.6983817 C23.5530637,21.1281755 24.0349212,21.3431514 24.464715,21.1785439 Z" id="Stroke-2562"></path>
            <path d="M24.464715,26.1785439 C27.1022953,25.1683719 30.8368046,24.4509172 35.0563195,24.1650947 C35.5155045,24.1339903 35.8625324,23.7365322 35.831428,23.2773472 C35.8003236,22.8181622 35.4028656,22.4711343 34.9436805,22.5022386 C30.570401,22.7984769 26.6774099,23.5463783 23.8686183,24.6221228 C23.4388245,24.7867304 23.2238486,25.2685879 23.3884561,25.6983817 C23.5530637,26.1281755 24.0349212,26.3431514 24.464715,26.1785439 Z" id="Stroke-2563"></path>
          </g>
        </g>
      </g>
    </g>
  </g>
</svg>
